<svg xmlns="http://www.w3.org/2000/svg" width="24.106" height="22.86" viewBox="0 0 24.106 22.86">
  <g id="Group_3822" data-name="Group 3822" transform="translate(-771.913 -1769.013)">
    <path id="Path_6785" data-name="Path 6785" d="M860,1860.58a6.011,6.011,0,0,1,3.828,4.178,5.869,5.869,0,0,1-.52,4.368.759.759,0,0,1-.745.457q-4.548-.009-9.1,0a.771.771,0,0,1-.745-.458,6.027,6.027,0,0,1,3-8.413c.092-.038.185-.073.339-.134a4.033,4.033,0,0,1-2.019-4,3.828,3.828,0,0,1,1.444-2.632,4.015,4.015,0,0,1,5.6.521A4.084,4.084,0,0,1,860,1860.58Zm-1.981,7.8c1.34,0,2.68-.005,4.019.005a.39.39,0,0,0,.435-.3,4.711,4.711,0,0,0,.285-2.578,4.623,4.623,0,0,0-3.347-3.824,4.514,4.514,0,0,0-4.951,1.373,4.634,4.634,0,0,0-.9,5.036.388.388,0,0,0,.44.289C855.341,1868.371,856.68,1868.376,858.02,1868.377Zm-2.8-11.326a2.8,2.8,0,1,0,2.814-2.808A2.8,2.8,0,0,0,855.218,1857.051Z" transform="translate(-74.067 -77.711)" fill="#ce6f29"/>
    <path id="Path_6786" data-name="Path 6786" d="M815.63,1769.014a3.608,3.608,0,1,1-3.615,3.6A3.615,3.615,0,0,1,815.63,1769.014Zm-.012,1.2a2.405,2.405,0,1,0,2.409,2.41A2.412,2.412,0,0,0,815.618,1770.217Z" transform="translate(-37.087 -0.001)" fill="#ce6f29"/>
    <path id="Path_6787" data-name="Path 6787" d="M963.614,1769.013a3.608,3.608,0,1,1-3.6,3.615A3.616,3.616,0,0,1,963.614,1769.013Zm.016,1.2a2.4,2.4,0,1,0,2.4,2.422A2.408,2.408,0,0,0,963.629,1770.216Z" transform="translate(-173.957)" fill="#ce6f29"/>
    <path id="Path_6788" data-name="Path 6788" d="M775.367,1878.376c-.664,0-1.328-.007-1.992,0a.743.743,0,0,1-.721-.433,6.018,6.018,0,0,1,4.44-8.827,6.382,6.382,0,0,1,.673-.061c.478-.012.755.2.767.579s-.261.6-.732.621a4.624,4.624,0,0,0-3.464,1.634,4.7,4.7,0,0,0-.877,4.95.431.431,0,0,0,.483.339c1.127-.018,2.255-.009,3.383-.007.489,0,.752.206.762.584s-.263.616-.766.618C776.67,1878.378,776.018,1878.376,775.367,1878.376Z" transform="translate(0 -92.522)" fill="#ce6f29"/>
    <path id="Path_6789" data-name="Path 6789" d="M1007.8,1878.816c-.664,0-1.327,0-1.991,0-.448,0-.714-.233-.715-.6s.27-.6.713-.6c1.139-.007,2.279-.009,3.418,0a.448.448,0,0,0,.5-.323,4.821,4.821,0,0,0-3.99-6.564c-.174-.016-.35-.023-.524-.044a.575.575,0,0,1-.552-.6.558.558,0,0,1,.6-.585,7.933,7.933,0,0,1,1.593.214,6.016,6.016,0,0,1,3.724,8.589.82.82,0,0,1-.827.51C1009.1,1878.8,1008.452,1878.816,1007.8,1878.816Z" transform="translate(-215.25 -92.937)" fill="#ce6f29"/>
  </g>
</svg>
