<svg xmlns="http://www.w3.org/2000/svg" width="29.806" height="25.359" viewBox="0 0 29.806 25.359">
  <g id="Group_7226" data-name="Group 7226" transform="translate(736.054 -31.617)">
    <path id="Path_11628" data-name="Path 11628" d="M-726.964,36.67c-.108.435-.2.848-.322,1.25-.021.069-.189.13-.289.131-1.506.008-3.013.006-4.519.006-.2,0-.395,0-.592,0a.9.9,0,0,0-1,1q0,3.693,0,7.387,0,2.322,0,4.644v.347h3.916c.006-.107.016-.207.016-.307,0-.717,0-1.434,0-2.151a2.6,2.6,0,0,1,1.9-2.586q1.26-.4,2.531-.764c.2-.057.283-.144.252-.345a.5.5,0,0,1,0-.124,1.248,1.248,0,0,0-.335-1,6.577,6.577,0,0,1-.638-1.227.9.9,0,0,0-.289-.352,1.207,1.207,0,0,1-.618-.852c-.063-.358-.124-.716-.177-1.075a1.334,1.334,0,0,1,.257-1.028.545.545,0,0,0,.089-.361,4.359,4.359,0,0,1,1.306-3.827,2.658,2.658,0,0,1,.72-.372c.092-.046.187-.085.276-.135a4.034,4.034,0,0,1,4.57.232,4.691,4.691,0,0,1,1,1.239.508.508,0,0,0,.506.261c.256-.018.515,0,.815,0V36.3c0-.956,0-1.912,0-2.867a1.67,1.67,0,0,1,1.779-1.805q3.9-.011,7.792,0a1.654,1.654,0,0,1,1.76,1.786q0,2.462,0,4.925a1.672,1.672,0,0,1-1.754,1.769c-1.392.006-2.784,0-4.176.01a.815.815,0,0,0-.489.191c-.6.53-1.182,1.078-1.762,1.628a.741.741,0,0,1-.849.2.723.723,0,0,1-.422-.764c0-.413,0-.825,0-1.23-1.429-.24-1.651-.483-1.916-2.069h-.552c-.037.455-.077.9-.1,1.336a.31.31,0,0,0,.086.187,1.285,1.285,0,0,1,.278,1.08q-.083.538-.179,1.075a1.178,1.178,0,0,1-.632.839.573.573,0,0,0-.248.308,3.4,3.4,0,0,1-1,1.655c-.27.247-.1.589-.108.884,0,.071.215.178.347.219.781.246,1.569.473,2.352.714a2.626,2.626,0,0,1,1.968,2.667c0,.789,0,1.578,0,2.392h6.744v-10.8l1.413-.083v.334q0,5.189,0,10.379a.507.507,0,0,0,.245.509,1.373,1.373,0,0,1,.644,1.023,3.545,3.545,0,0,1-1.365,3.558,3.514,3.514,0,0,1-2.173.627q-9.989-.009-19.979,0c-1.008,0-2.016.018-3.023-.017a3.307,3.307,0,0,1-3.139-3.192c-.007-.239-.008-.478,0-.717a1.52,1.52,0,0,1,.716-1.309.482.482,0,0,0,.246-.477q-.008-6.062,0-12.124a2.3,2.3,0,0,1,1.551-2.342,2.732,2.732,0,0,1,.824-.131c1.87-.011,3.74-.006,5.61-.005C-727.065,36.657-727.024,36.664-726.964,36.67Zm5.747,18.909h3.9q3.786,0,7.572,0a1.857,1.857,0,0,0,1.855-1.209,5.628,5.628,0,0,0,.151-1.285c.015-.179-.118-.177-.255-.177q-3.568,0-7.136,0a.34.34,0,0,0-.373.229,2.415,2.415,0,0,1-2.317,1.5q-3.319.023-6.637,0a2.417,2.417,0,0,1-2.317-1.5.325.325,0,0,0-.344-.23q-3.646.009-7.292,0c-.156,0-.224.044-.247.2a2.047,2.047,0,0,0,2.133,2.476Zm-7.126-4.147h11.524c0-.9.028-1.783-.01-2.662a1.12,1.12,0,0,0-.865-1.033c-.88-.28-1.764-.545-2.65-.8a.442.442,0,0,0-.336.053,2.939,2.939,0,0,1-3.74-.019.36.36,0,0,0-.271-.063c-.946.276-1.891.553-2.829.855a1.081,1.081,0,0,0-.813,1C-728.369,49.643-728.343,50.525-728.343,51.432Zm14.067-11.555c.326-.3.625-.557.9-.837a1.149,1.149,0,0,1,.894-.348c1.463.01,2.927.005,4.39,0,.391,0,.453-.06.454-.449q0-2.382,0-4.764c0-.4-.07-.47-.47-.47h-7.6c-.42,0-.467.047-.467.464q0,2.273,0,4.546c0,.674,0,.674.659.674C-714.458,38.7-714.374,38.773-714.276,39.878Zm-5.15,1.411c.036-.372.275-.76-.238-.967-.049-.02-.076-.1-.11-.147-.15-.236-.285-.484-.455-.706a.428.428,0,0,0-.314-.158,3.685,3.685,0,0,1-2.585-.7.282.282,0,0,0-.381-.011,1.279,1.279,0,0,1-.62.262.856.856,0,0,0-.876.726,1.366,1.366,0,0,1-.17.366c-.131.188-.286.359-.425.542a.347.347,0,0,0-.094.2c.016.195.058.387.089.574.543.145.635.239.777.781.039.15.081.3.12.451a2.388,2.388,0,0,0,2.126,1.675,2.383,2.383,0,0,0,2.266-1.694c.046-.17.1-.338.135-.511A.757.757,0,0,1-719.426,41.288Zm-6-3.308a1.614,1.614,0,0,1,.5-.082,1.137,1.137,0,0,0,1.176-.382.5.5,0,0,1,.7-.053c.251.166.5.34.753.5a2.409,2.409,0,0,0,1.824.31.707.707,0,0,1,.886.312,2.7,2.7,0,0,0-.908-1.9c-.13-.116-.238-.256-.361-.381a1.114,1.114,0,0,0-.3-.279,2.716,2.716,0,0,0-2.7.164c-.283.187-.586.343-.878.517a.291.291,0,0,0-.1.111C-725.028,37.177-725.21,37.544-725.429,37.98Zm8.9,14.953h-9.23a1.443,1.443,0,0,0,1.251.7q3.362.015,6.724,0A1.452,1.452,0,0,0-716.528,52.933Zm-5-7.521a3.294,3.294,0,0,1-2.156-.056c0,.3-.009.57.007.835a.281.281,0,0,0,.139.177,1.894,1.894,0,0,0,1.924.039.256.256,0,0,0,.129-.177C-721.481,45.973-721.505,45.716-721.523,45.412Z" fill="#ce6f29"/>
    <path id="Path_11629" data-name="Path 11629" d="M-318.753,91.18a.548.548,0,0,1-.549.553.564.564,0,0,1-.568-.571.563.563,0,0,1,.571-.537A.545.545,0,0,1-318.753,91.18Z" transform="translate(-390.238 -55.33)" fill="#ce6f29"/>
    <path id="Path_11630" data-name="Path 11630" d="M-395.226,91.728a.568.568,0,0,1-.551-.559.565.565,0,0,1,.591-.549.542.542,0,0,1,.525.573A.542.542,0,0,1-395.226,91.728Z" transform="translate(-319.064 -55.325)" fill="#ce6f29"/>
    <path id="Path_11631" data-name="Path 11631" d="M-357.243,91.738a.568.568,0,0,1-.575-.535.561.561,0,0,1,.534-.573.544.544,0,0,1,.582.548A.546.546,0,0,1-357.243,91.738Z" transform="translate(-354.656 -55.334)" fill="#ce6f29"/>
  </g>
</svg>
