<svg xmlns="http://www.w3.org/2000/svg" width="24" height="23.743" viewBox="0 0 24 23.743">
  <g id="Group_3830" data-name="Group 3830" transform="translate(-1793.906 -3155.521)">
    <path id="Path_6863" data-name="Path 6863" d="M1808.8,3259.442v-1.308c0-.448,0-.9,0-1.344,0-.382.174-.563.54-.563q1.861,0,3.72,0a1.617,1.617,0,0,0,1.6-1.666c.006-1.651,0-3.3,0-4.953s0-3.318,0-4.978a2.134,2.134,0,0,1,0-.236.438.438,0,0,1,.875-.005,1.35,1.35,0,0,1,0,.165q0,4.965,0,9.931a2.661,2.661,0,0,1-1.746,2.566,2.21,2.21,0,0,1-.643.1c-1.067.009-2.135,0-3.2,0h-.271v.3c0,.959,0,1.918,0,2.878a.536.536,0,0,1-.272.547c-.224.114-.389-.008-.548-.151q-1.879-1.692-3.756-3.387a.666.666,0,0,0-.483-.193q-4.058.009-8.117,0a2.631,2.631,0,0,1-2.59-2.708c0-3.892.027-7.784-.013-11.676a2.474,2.474,0,0,1,2.461-2.578q5.941-.008,11.882,0a.466.466,0,1,1-.007.923q-5.907,0-11.814,0a1.565,1.565,0,0,0-1.4.706,1.312,1.312,0,0,0-.216.674q-.019,6.038-.007,12.077a1.694,1.694,0,0,0,1.618,1.66c2.773,0,5.547.005,8.32-.006a1.108,1.108,0,0,1,.812.313c1.006.922,2.025,1.829,3.04,2.74C1808.645,3259.317,1808.7,3259.357,1808.8,3259.442Z" transform="translate(0 -81.657)" fill="#ce6f29"/>
    <path id="Path_6864" data-name="Path 6864" d="M2101.553,3162.5a2.72,2.72,0,0,1,.271-.389q2.337-2.366,4.682-4.723c.537-.541,1.079-1.078,1.609-1.626a.627.627,0,0,1,.716-.2c.395.13.807.209,1.2.343a2.924,2.924,0,0,1,.559.318c.052.032.083.1.133.132a3.981,3.981,0,0,1,1.3,2.505c.06.206-.078.355-.215.493q-1.777,1.775-3.552,3.552-1.384,1.384-2.769,2.768a1.47,1.47,0,0,1-.247.217.453.453,0,0,1-.575-.107.442.442,0,0,1,.045-.619c.316-.328.643-.647.965-.969q2.618-2.618,5.239-5.232a.277.277,0,0,0,.087-.351.7.7,0,0,1-.058-.179,2.2,2.2,0,0,0-.87-1.427,3.4,3.4,0,0,0-.5-.283c-.047-.025-.109-.022-.157-.047-.534-.276-.886-.065-1.282.343-1.876,1.936-3.789,3.836-5.687,5.75a.49.49,0,0,1-.564.18A.538.538,0,0,1,2101.553,3162.5Z" transform="translate(-294.132)" fill="#ce6f29"/>
    <path id="Path_6865" data-name="Path 6865" d="M1900.865,3490.178h5.917a1.679,1.679,0,0,1,.235.006.458.458,0,0,1-.007.913,1.235,1.235,0,0,1-.165,0q-6.011,0-12.022,0a.532.532,0,0,1-.519-.254.408.408,0,0,1,.028-.466.545.545,0,0,1,.5-.208q2.345,0,4.691,0Z" transform="translate(-96.005 -319.522)" fill="#ce6f29"/>
    <path id="Path_6866" data-name="Path 6866" d="M1900.876,3440.187h5.893a2.3,2.3,0,0,1,.236,0,.479.479,0,0,1,.44.47.483.483,0,0,1-.44.447,1.8,1.8,0,0,1-.188,0h-11.951a1.307,1.307,0,0,1-.188-.005.458.458,0,0,1,0-.913,1.76,1.76,0,0,1,.235-.006Z" transform="translate(-96.02 -271.792)" fill="#ce6f29"/>
    <path id="Path_6867" data-name="Path 6867" d="M2140.4,3198.174a1.215,1.215,0,0,1-.179.29q-2.982,2.97-5.974,5.93a.472.472,0,0,1-.5.172.455.455,0,0,1-.163-.79c.664-.669,1.336-1.332,2-2q1.983-1.968,3.971-3.931a.74.74,0,0,1,.4-.2C2140.214,3197.623,2140.4,3197.839,2140.4,3198.174Z" transform="translate(-324.492 -40.14)" fill="#ce6f29"/>
    <path id="Path_6868" data-name="Path 6868" d="M2061.283,3321.29c.457-.114.874-.216,1.29-.321l1.872-.475a.456.456,0,0,1,.6.3.463.463,0,0,1-.374.582c-.692.179-1.385.352-2.078.527-.457.115-.913.234-1.371.343a.735.735,0,0,1-.911-.9c.3-1.155.611-2.307.922-3.459a.45.45,0,0,1,.513-.381.434.434,0,0,1,.393.429,1.48,1.48,0,0,1-.068.345q-.377,1.423-.757,2.845C2061.3,3321.162,2061.3,3321.2,2061.283,3321.29Z" transform="translate(-254.429 -154.718)" fill="#ce6f29"/>
    <path id="Path_6869" data-name="Path 6869" d="M1898.739,3341.1q-1.6,0-3.2,0a.438.438,0,0,1-.473-.276.657.657,0,0,1,.035-.437c.089-.187.289-.212.488-.212q2.262,0,4.524,0h1.909a.48.48,0,0,1,.459.271.355.355,0,0,1-.057.456.8.8,0,0,1-.453.188C1900.891,3341.109,1899.815,3341.1,1898.739,3341.1Z" transform="translate(-96.634 -176.305)" fill="#ce6f29"/>
    <path id="Path_6870" data-name="Path 6870" d="M1897.761,3391.121c-1,0-1.995,0-2.992,0a.479.479,0,0,1-.51-.473.485.485,0,0,1,.51-.449c.039,0,.078,0,.118,0h4.547c.44,0,.88,0,1.319,0,.328,0,.549.183.557.45s-.221.472-.558.473Q1899.257,3391.123,1897.761,3391.121Z" transform="translate(-95.882 -224.064)" fill="#ce6f29"/>
  </g>
</svg>
