<svg xmlns="http://www.w3.org/2000/svg" width="25.685" height="25.711" viewBox="0 0 25.685 25.711">
  <g id="Group_3824" data-name="Group 3824" transform="translate(-1777.401 -1776.975)">
    <path id="Path_6808" data-name="Path 6808" d="M1793.674,1789.842a6.912,6.912,0,0,1,2.721.42,6.436,6.436,0,0,1,4.132,5.884c.016,1.786,0,3.573.005,5.359v.333h2.554v.848H1777.4v-.836h2.551v-.316c0-1.733,0-3.465,0-5.2a6.4,6.4,0,0,1,5.11-6.35,16.865,16.865,0,0,1,1.718-.2,5.23,5.23,0,0,1-1.6-2.927,6.208,6.208,0,0,1-.631-.061,1.841,1.841,0,0,1-1.518-1.38,1.881,1.881,0,0,1,.606-1.988.581.581,0,0,0,.178-.349,6.429,6.429,0,0,1,12.814-.35,3.08,3.08,0,0,0,.041.4.52.52,0,0,0,.132.266,1.925,1.925,0,0,1,.01,3.014.468.468,0,0,0-.133.289c-.022.275.011.557-.026.829a2.138,2.138,0,0,1-2.156,1.88C1794.022,1789.415,1794.022,1789.415,1793.674,1789.842Zm3.856,11.991v-.267q0-2.572,0-5.145a1.3,1.3,0,0,0-1.447-1.437h-11.71a1.294,1.294,0,0,0-1.42,1.409q0,2.573,0,5.145v.295Zm-3.018-17.132c-2.047-.167-4.028-.5-5.527-2.1a4.093,4.093,0,0,1-3.03,1.645c0,.557,0,1.092,0,1.628a4.279,4.279,0,0,0,4.923,4.334,3.98,3.98,0,0,0,1.911-.8h-2.531v-.857c1.061,0,2.1-.006,3.148,0a.433.433,0,0,0,.411-.218A5.58,5.58,0,0,0,1794.512,1784.7Zm5.162,17.129v-.2c0-1.8,0-3.607,0-5.411a4.918,4.918,0,0,0-.073-.852,5.568,5.568,0,0,0-4.991-4.641.3.3,0,0,0-.363.209c-.435.889-.882,1.772-1.325,2.658-.083.165-.162.332-.262.535h3.4a2.156,2.156,0,0,1,2.328,2.315q0,2.545,0,5.089v.3Zm-17.578.008v-.34q0-2.559,0-5.117a2.146,2.146,0,0,1,2.253-2.256q1.594,0,3.188,0c.085,0,.17-.007.256-.011a.262.262,0,0,0-.006-.07c-.533-1.07-1.063-2.14-1.606-3.2a.312.312,0,0,0-.253-.111,5.559,5.559,0,0,0-5.117,5.546c-.006,1.768,0,3.536,0,5.3v.259Zm12.44-18.008a4.2,4.2,0,0,0-2.031-3.622,4.087,4.087,0,0,0-4.554.016,4.149,4.149,0,0,0-1.967,3.121c.986-.011,2.55-.794,2.551-2.105a.4.4,0,0,1,.418-.4.389.389,0,0,1,.422.368,1.824,1.824,0,0,0,.923,1.427A8.067,8.067,0,0,0,1794.536,1783.83Zm1.235-.861a5.528,5.528,0,0,0-5.958-5.115,5.391,5.391,0,0,0-3.99,2.174,5.294,5.294,0,0,0-1.121,2.929h.472a5.173,5.173,0,0,1,4.75-4.258,5.015,5.015,0,0,1,3.17.861,5.155,5.155,0,0,1,2.221,3.408Zm-6.856,7.973,1.328,2.653,1.323-2.644A5.124,5.124,0,0,1,1788.915,1790.941Zm-1.795-.212a.116.116,0,0,0,0,.046q.8,1.615,1.613,3.228a.228.228,0,0,0,.152.115c.207.014.414.005.659.005-.495-.988-1-1.913-1.421-2.873C1787.913,1790.765,1787.638,1790.579,1787.12,1790.73Zm3.827,3.4a2.758,2.758,0,0,1,.4,0c.263.043.39-.072.5-.307.459-.956.942-1.9,1.415-2.849.041-.083.078-.168.129-.277a3.1,3.1,0,0,1-.416,0c-.25-.037-.375.071-.483.294-.461.955-.943,1.9-1.415,2.849C1791.039,1793.922,1791,1794.009,1790.947,1794.126Zm-5.868-8.158v-2.12a1.077,1.077,0,1,0,0,2.12Zm10.32,0a1.084,1.084,0,0,0,1.148-.571,1,1,0,0,0-.109-1.155,1.044,1.044,0,0,0-1.039-.394Zm-.616,2.511a1.265,1.265,0,0,0,1-1.628h-.424Z" transform="translate(0 0)" fill="#ce6f29"/>
    <path id="Path_6815" data-name="Path 6815" d="M1934.9,2056.551a1.714,1.714,0,1,1,1.7-1.733A1.72,1.72,0,0,1,1934.9,2056.551Zm.845-1.722a.856.856,0,1,0-.842.864A.863.863,0,0,0,1935.749,2054.829Z" transform="translate(-144.651 -256.423)" fill="#ce6f29"/>
    <path id="Path_6816" data-name="Path 6816" d="M2035.4,2074.271V2071.3h.825v2.971Z" transform="translate(-239.572 -273.303)" fill="#ce6f29"/>
    <path id="Path_6817" data-name="Path 6817" d="M2035.389,2048.211v-.823h.828v.823Z" transform="translate(-239.561 -251.099)" fill="#ce6f29"/>
    <path id="Path_6818" data-name="Path 6818" d="M1918.01,1892.328h-.819c-.063-.221-.18-.419-.458-.412-.254.006-.373.177-.434.413h-.817a1.264,1.264,0,1,1,2.528,0Z" transform="translate(-128.216 -105.931)" fill="#ce6f29"/>
    <path id="Path_6819" data-name="Path 6819" d="M1964.255,1892.327h-.828a1.264,1.264,0,0,1,1.22-1.273,1.278,1.278,0,0,1,1.325,1.266h-.829c-.067-.22-.185-.417-.466-.4C1964.425,1891.927,1964.305,1892.1,1964.255,1892.327Z" transform="translate(-172.739 -105.931)" fill="#ce6f29"/>
  </g>
</svg>
