<svg xmlns="http://www.w3.org/2000/svg" width="24.105" height="23.356" viewBox="0 0 24.105 23.356">
  <g id="Group_3825" data-name="Group 3825" transform="translate(-2308 -1714.959)">
    <path id="Path_6820" data-name="Path 6820" d="M2332.105,1725.366c-.085.477-.141.962-.261,1.429a9.793,9.793,0,0,1-3.457,5.22,12.872,12.872,0,0,1-6.856,2.823,13.636,13.636,0,0,1-2.84.017.414.414,0,0,0-.271.088q-1.844,1.5-3.68,3.006c-.073.06-.145.12-.219.177a.73.73,0,0,1-.814.111.741.741,0,0,1-.434-.722c0-1.388,0-2.776,0-4.165a.392.392,0,0,0-.219-.386,10.654,10.654,0,0,1-4.462-5.121,8.14,8.14,0,0,1-.553-2.275,1.8,1.8,0,0,0-.043-.2v-1.224a1.442,1.442,0,0,0,.041-.182,8.032,8.032,0,0,1,.979-3.14,10.822,10.822,0,0,1,5.407-4.719,14.13,14.13,0,0,1,7.594-1,12.89,12.89,0,0,1,6.494,2.7,9.232,9.232,0,0,1,3.379,5.149c.094.394.142.8.211,1.2Zm-17.326,10.595c.1-.079.165-.125.225-.173.977-.8,1.952-1.6,2.935-2.394a.514.514,0,0,1,.356-.1,11.918,11.918,0,0,0,4.372-.162,10.808,10.808,0,0,0,6.049-3.517,7.4,7.4,0,0,0,1.871-4.522,6.811,6.811,0,0,0-1.657-4.8,10.448,10.448,0,0,0-5.744-3.449,12.887,12.887,0,0,0-5.6-.143,10.971,10.971,0,0,0-5.945,3.061,7,7,0,0,0-.745,9.214,9.931,9.931,0,0,0,3.652,3.111.356.356,0,0,1,.234.392c-.018.3,0,.6,0,.894C2314.78,1734.22,2314.78,1735.066,2314.78,1735.96Z" fill="#ce6f29"/>
    <path id="Path_6821" data-name="Path 6821" d="M2492.674,1810.99a2.446,2.446,0,0,1,.888-2.1,15.185,15.185,0,0,0,1.319-1.34,1.806,1.806,0,0,0,.486-1.5,1.715,1.715,0,0,0-1.365-1.494,1.8,1.8,0,0,0-1.951.767,3.445,3.445,0,0,0-.311.7c-.1.286-.165.345-.457.32-.32-.028-.64-.059-.96-.094-.258-.029-.341-.148-.29-.4a3.437,3.437,0,0,1,3.007-2.707,4.357,4.357,0,0,1,1.948.185,2.949,2.949,0,0,1,1.98,3.256,3.082,3.082,0,0,1-.9,1.843c-.417.415-.825.839-1.248,1.248a1.631,1.631,0,0,0-.531,1.213c0,.227,0,.455-.017.682a.332.332,0,0,1-.359.352q-.435.012-.871,0a.341.341,0,0,1-.368-.37C2492.666,1811.367,2492.674,1811.178,2492.674,1810.99Z" transform="translate(-173.45 -84.004)" fill="#ce6f29"/>
    <path id="Path_6822" data-name="Path 6822" d="M2545.089,2015.09a.887.887,0,1,1,.892-.875A.9.9,0,0,1,2545.089,2015.09Z" transform="translate(-225.084 -284.311)" fill="#ce6f29"/>
  </g>
</svg>
