<svg xmlns="http://www.w3.org/2000/svg" width="24.106" height="22.476" viewBox="0 0 24.106 22.476">
  <g id="Group_3826" data-name="Group 3826" transform="translate(-1263.996 -2314.671)">
    <path id="Path_6823" data-name="Path 6823" d="M1282.486,2323.193c.245-.1.447-.179.648-.262q2-.823,4-1.644a.236.236,0,0,0,.18-.242.384.384,0,0,1,.4-.365.409.409,0,0,1,.388.387c0,.006,0,.012,0,.019.03.636.014.661-.575.9q-2.435,1-4.87,2a.229.229,0,0,0-.179.242c.005,1.531,0,3.063,0,4.594,0,.047.01.094.022.2.128-.155.226-.272.321-.391.043-.054.079-.113.119-.169a1.756,1.756,0,0,0,.35-1.12c-.033-.732-.012-1.468-.007-2.2a.4.4,0,0,1,.536-.414.378.378,0,0,1,.262.377c0,.935.008,1.87,0,2.8a1.09,1.09,0,0,1-.144.423,4.778,4.778,0,0,1-1.314,1.673.347.347,0,0,0-.144.3c.005.634.006,1.267,0,1.9a.267.267,0,0,0,.168.274,1.188,1.188,0,0,1,.511,1.584,1.2,1.2,0,0,1-2.207-.949,1.1,1.1,0,0,1,.56-.633.273.273,0,0,0,.169-.293q-.006-3.812,0-7.624c0-.621-.005-1.243,0-1.864a.244.244,0,0,0-.19-.272c-1.417-.523-2.831-1.055-4.249-1.575a.439.439,0,0,0-.3.025,2.019,2.019,0,0,1-1.9-.066,1.035,1.035,0,0,1,0-1.878,1.961,1.961,0,0,1,2.011,0,1.03,1.03,0,0,1,.586,1.087c-.019.145.083.151.164.182q1.2.449,2.4.894c.564.21,1.126.424,1.693.627a.4.4,0,0,0,.266,0q2.167-.887,4.328-1.787c.033-.013.063-.032.127-.064-.088-.041-.145-.071-.206-.1l-8.028-3.324c-.724-.3-1.447-.6-2.174-.9a.437.437,0,0,0-.3,0q-5.1,2.1-10.2,4.216c-.063.026-.125.056-.225.1.081.041.131.07.185.092q5.117,2.119,10.237,4.232a.459.459,0,0,0,.315-.011c1.254-.51,2.5-1.03,3.756-1.548.041-.017.081-.035.122-.05a.393.393,0,0,1,.531.216.389.389,0,0,1-.214.515c-.21.1-.425.185-.64.273-1.159.479-2.319.954-3.476,1.438a.608.608,0,0,1-.5,0q-5.724-2.373-11.452-4.738c-.186-.077-.332-.18-.339-.4-.006-.194.1-.319.341-.419q5.726-2.368,11.451-4.74a.632.632,0,0,1,.523,0q5.237,2.173,10.477,4.339c.336.139.671.28,1.008.417a.4.4,0,0,1,.294.393.41.41,0,0,1-.3.39c-1.686.7-3.369,1.4-5.058,2.091-.2.081-.3.173-.265.394A3.352,3.352,0,0,1,1282.486,2323.193Zm-6.437-2.925a1.167,1.167,0,0,0,.473-.095c.208-.089.457-.29.21-.5a1.242,1.242,0,0,0-1.342,0c-.265.215.1.452.29.525A1.066,1.066,0,0,0,1276.049,2320.268Zm6.03,12.866a.4.4,0,1,0,.4.389A.395.395,0,0,0,1282.079,2333.134Z" transform="translate(-0.014 0)" fill="#ce6f29"/>
    <path id="Path_6824" data-name="Path 6824" d="M1317.57,2434.407c0-.558-.006-1.117,0-1.675a.4.4,0,0,1,.582-.4.424.424,0,0,1,.22.425q0,.593,0,1.185c0,.715,0,1.43,0,2.146,0,.158.047.205.2.2a9.636,9.636,0,0,0,3.514-.815c.034-.016.068-.032.1-.046a.4.4,0,1,1,.333.727,9.118,9.118,0,0,1-2.541.789,12.3,12.3,0,0,1-4.065,0,8.071,8.071,0,0,1-5.177-2.864,9.436,9.436,0,0,1-.717-1.123.743.743,0,0,1-.085-.359c-.007-.878-.005-1.756,0-2.635,0-.318.186-.509.448-.477a.407.407,0,0,1,.355.455c0,.728.022,1.456-.007,2.183a1.668,1.668,0,0,0,.34,1.063,7,7,0,0,0,3.943,2.723,10.777,10.777,0,0,0,2.353.379c.16.01.2-.04.2-.2-.008-.558,0-1.116,0-1.675Z" transform="translate(-41.928 -104.774)" fill="#ce6f29"/>
    <path id="Path_6825" data-name="Path 6825" d="M1264,2384.054c0-.069,0-.138,0-.207a.407.407,0,0,1,.392-.382.382.382,0,0,1,.4.351c0,.157.077.211.2.264q4.032,1.663,8.061,3.333c.95.393,1.9.789,2.851,1.174a.432.432,0,0,0,.3,0c1.34-.547,2.676-1.1,4.015-1.655a.72.72,0,0,1,.307-.063.379.379,0,0,1,.334.333.385.385,0,0,1-.239.426c-.379.166-.762.323-1.144.481-1.031.427-2.063.849-3.091,1.282a.794.794,0,0,1-.665,0q-5.642-2.345-11.289-4.676C1264.031,2384.551,1264,2384.5,1264,2384.054Z" transform="translate(0 -62.785)" fill="#ce6f29"/>
    <path id="Path_6826" data-name="Path 6826" d="M1480.5,2544.478a.373.373,0,0,1,.385.3c.141.538.277,1.078.4,1.62a.4.4,0,0,1-.766.2q-.222-.824-.416-1.656A.386.386,0,0,1,1480.5,2544.478Z" transform="translate(-197.227 -209.735)" fill="#ce6f29"/>
    <path id="Path_6827" data-name="Path 6827" d="M1447.958,2546.376l.284-1.142c.041-.164.077-.329.125-.491a.4.4,0,0,1,.5-.3.405.405,0,0,1,.27.506c-.127.516-.253,1.033-.389,1.547a.4.4,0,0,1-.575.291A.41.41,0,0,1,1447.958,2546.376Z" transform="translate(-167.894 -209.688)" fill="#ce6f29"/>
    <path id="Path_6828" data-name="Path 6828" d="M1466.295,2549.977c0-.187-.006-.376,0-.563a.407.407,0,0,1,.406-.426.4.4,0,0,1,.393.419c.009.394.01.789,0,1.183a.4.4,0,0,1-.4.408.408.408,0,0,1-.393-.4c-.009-.105,0-.212,0-.319s0-.2,0-.3Z" transform="translate(-184.627 -213.851)" fill="#ce6f29"/>
  </g>
</svg>
