<svg xmlns="http://www.w3.org/2000/svg" width="24.105" height="23.419" viewBox="0 0 24.105 23.419">
  <g id="Group_3823" data-name="Group 3823" transform="translate(-1240.965 -1750.999)">
    <path id="Path_6790" data-name="Path 6790" d="M1369.929,1873.4v.316q0,5.376,0,10.752a1.039,1.039,0,0,1-.509,1.036l1.578,1.433-1.681.719.626,1.424-1.96.971-.658-1.464-1.666.7V1885.6h-5.7c-.777,0-1.1-.33-1.1-1.112,0-.764,0-1.527,0-2.315h.829v2.58h5.94v-2.685c.444.4.83.745,1.215,1.093.52.469,1.049.929,1.552,1.415a.7.7,0,0,0,.7.168V1873.4Zm-1.535,15.524.472-.235-.644-1.468,1.264-.541L1366.5,1884v4.031l1.255-.522Z" transform="translate(-111.374 -115.636)" fill="#ce6f29"/>
    <path id="Path_6791" data-name="Path 6791" d="M1241.811,1789.115h4.445v.825c-.09,0-.186.014-.283.014q-1.934,0-3.869,0c-.813,0-1.137-.328-1.137-1.139q0-7.129,0-14.259a1.082,1.082,0,0,1,.234-.771.916.916,0,0,1,.713-.308q2.128,0,4.255,0a.4.4,0,0,1,.092.025v.8h-4.448Z" transform="translate(0 -21.234)" fill="#ce6f29"/>
    <path id="Path_6792" data-name="Path 6792" d="M1585.77,1789.088v-14.814h-4.445v-.843h4.142c.818,0,1.144.323,1.144,1.133q0,7.129,0,14.258a.945.945,0,0,1-1.076,1.089c-1.326,0-2.653,0-3.979,0-.072,0-.145-.007-.234-.012v-.812Z" transform="translate(-321.541 -21.192)" fill="#ce6f29"/>
    <path id="Path_6793" data-name="Path 6793" d="M1369.931,1754.511h-.823v-2.663H1359.7v11.514h-.84v-.3q0-5.471,0-10.942c0-.805.318-1.125,1.116-1.125h8.87c.748,0,1.084.332,1.086,1.072,0,.719,0,1.437,0,2.155Z" transform="translate(-111.376 0)" fill="#ce6f29"/>
    <path id="Path_6794" data-name="Path 6794" d="M1415.43,1793.762a2.708,2.708,0,1,1-2.69-2.72A2.71,2.71,0,0,1,1415.43,1793.762Zm-2.707,1.867a1.879,1.879,0,1,0-1.88-1.876A1.879,1.879,0,0,0,1412.723,1795.629Z" transform="translate(-159.703 -37.83)" fill="#ce6f29"/>
    <path id="Path_6795" data-name="Path 6795" d="M1578.346,1809.088l.3-.732a1.559,1.559,0,0,0,1.885-.6,1.444,1.444,0,0,0,.032-1.688,1.577,1.577,0,0,0-1.92-.65l-.291-.711a2.3,2.3,0,0,1,2.652.566,2.386,2.386,0,0,1,.148,3.046A2.343,2.343,0,0,1,1578.346,1809.088Z" transform="translate(-318.73 -50.544)" fill="#ce6f29"/>
    <path id="Path_6796" data-name="Path 6796" d="M1283.5,1804.723l-.3.733a1.572,1.572,0,0,0-1.933.671,1.44,1.44,0,0,0,.044,1.665,1.56,1.56,0,0,0,1.887.6l.293.716a2.289,2.289,0,0,1-2.6-.515,2.382,2.382,0,0,1,2.612-3.867Z" transform="translate(-37.076 -50.577)" fill="#ce6f29"/>
    <path id="Path_6797" data-name="Path 6797" d="M1581.142,1998.967v-.8a.86.86,0,0,1,.156-.03c.7,0,1.4-.009,2.1,0a1.193,1.193,0,0,1,1.182.825,1.151,1.151,0,0,1-.387,1.31,1.3,1.3,0,0,1-.65.261c-.789.031-1.579.012-2.387.012v-.82h1.544c.2,0,.4,0,.607,0,.331,0,.5-.13.507-.375s-.168-.385-.5-.386c-.626,0-1.251,0-1.877,0Z" transform="translate(-321.371 -233.474)" fill="#ce6f29"/>
    <path id="Path_6798" data-name="Path 6798" d="M1277.038,1999.714v.808a1.851,1.851,0,0,1-.187.02c-.681,0-1.362.007-2.043,0a1.209,1.209,0,1,1-.018-2.416c.743-.012,1.486,0,2.244,0v.83h-2.14c-.35,0-.527.133-.522.388s.177.372.509.373C1275.59,1999.715,1276.3,1999.714,1277.038,1999.714Z" transform="translate(-30.776 -233.459)" fill="#ce6f29"/>
    <path id="Path_6799" data-name="Path 6799" d="M1405.34,2011.379v.828h-1.5c-.119,0-.24,0-.359,0a.5.5,0,1,0,.016,1c.441.01.883,0,1.325,0h.512v.8a1.718,1.718,0,0,1-.2.024c-.534,0-1.068.006-1.6,0a1.333,1.333,0,1,1-.042-2.665C1404.1,2011.366,1404.718,2011.379,1405.34,2011.379Z" transform="translate(-152.268 -245.981)" fill="#ce6f29"/>
    <path id="Path_6800" data-name="Path 6800" d="M1413.358,1916.384h5.041v.794h-5.041Z" transform="translate(-162.863 -156.242)" fill="#ce6f29"/>
    <path id="Path_6801" data-name="Path 6801" d="M1432.2,1959.065v-.8h2.959v.8Z" transform="translate(-180.66 -195.812)" fill="#ce6f29"/>
    <path id="Path_6802" data-name="Path 6802" d="M1284.1,1915.067v-.791h2.9v.791Z" transform="translate(-40.753 -154.251)" fill="#ce6f29"/>
    <path id="Path_6803" data-name="Path 6803" d="M1584.22,1914.941h-2.89v-.8h2.89Z" transform="translate(-321.549 -154.118)" fill="#ce6f29"/>
    <path id="Path_6804" data-name="Path 6804" d="M1302.423,1956.041h-1.993v-.8h1.993Z" transform="translate(-56.178 -192.946)" fill="#ce6f29"/>
    <path id="Path_6805" data-name="Path 6805" d="M1583.493,1955.3v.792h-2v-.792Z" transform="translate(-321.703 -193.01)" fill="#ce6f29"/>
    <path id="Path_6806" data-name="Path 6806" d="M1544.459,1835.255h.795v1.094h-.795Z" transform="translate(-286.716 -79.598)" fill="#ce6f29"/>
    <path id="Path_6807" data-name="Path 6807" d="M1359.046,1994.367V1993.3h.8v1.066Z" transform="translate(-111.553 -228.907)" fill="#ce6f29"/>
  </g>
</svg>
