<svg xmlns="http://www.w3.org/2000/svg" width="24.105" height="22.494" viewBox="0 0 24.105 22.494">
  <g id="Group_3829" data-name="Group 3829" transform="translate(-621.215 -2242.265)">
    <path id="Path_6843" data-name="Path 6843" d="M627.652,2252.028q0-4.586,0-9.172c0-.479.112-.591.592-.591h16.51c.44,0,.565.125.565.569q0,9.122,0,18.244a3.6,3.6,0,0,1-2.927,3.6,3.883,3.883,0,0,1-.773.072q-8.393.006-16.787,0a3.609,3.609,0,0,1-3.612-3.614c-.01-3.435,0-6.869,0-10.3,0-.337.154-.538.4-.529s.38.2.38.527q0,5.139,0,10.278a2.824,2.824,0,0,0,5.646.085c.008-3.057,0-6.115,0-9.172Zm.778-8.974v.38q0,8.8,0,17.592a3.658,3.658,0,0,1-1.174,2.783,1.91,1.91,0,0,0-.139.17h.35q7.087,0,14.174,0a2.819,2.819,0,0,0,2.9-2.9q0-8.871,0-17.743v-.278Z" transform="translate(0 0)" fill="#ce6f29"/>
    <path id="Path_6844" data-name="Path 6844" d="M653.937,2265.553c-.006.106-.012.172-.012.238q0,5.316,0,10.631a1.217,1.217,0,0,0,2.406.268,2.05,2.05,0,0,0,.029-.449q0-8.633,0-17.266a2.226,2.226,0,0,1,0-.251.391.391,0,0,1,.37-.378.4.4,0,0,1,.4.372,1.487,1.487,0,0,1,.006.2q0,8.708,0,17.417a2,2,0,1,1-4,.067c-.009-1.918,0-3.837,0-5.756q0-2.651,0-5.3c0-.446.123-.569.564-.569s.888,0,1.332,0c.3,0,.487.159.487.392s-.191.384-.492.386C654.678,2265.555,654.32,2265.553,653.937,2265.553Z" transform="translate(-30.319 -15.271)" fill="#ce6f29"/>
    <path id="Path_6845" data-name="Path 6845" d="M922.1,2292.381c.217-.578.439-1.153.647-1.734.072-.2.173-.347.4-.345s.327.151.4.35c.191.535.4,1.065.6,1.6.02.052.048.1.1.217l.319-1.577c.018-.09.032-.181.056-.27a.392.392,0,0,1,.422-.313.368.368,0,0,1,.317.437c-.061.4-.144.806-.223,1.208-.127.639-.265,1.276-.386,1.916-.044.231-.142.406-.388.42-.224.013-.335-.145-.407-.343-.227-.62-.463-1.236-.7-1.854-.028-.074-.062-.145-.119-.274-.083.211-.145.362-.2.515-.2.54-.408,1.078-.605,1.62-.073.2-.189.353-.412.337s-.335-.176-.379-.4c-.19-.976-.389-1.95-.584-2.924-.01-.049-.015-.1-.021-.149-.035-.286.083-.474.317-.507.2-.028.374.114.427.369.1.491.2.982.3,1.474.016.081.04.159.06.239Z" transform="translate(-284.647 -45.622)" fill="#ce6f29"/>
    <path id="Path_6846" data-name="Path 6846" d="M782.035,2291.391q0,.954,0,1.907c0,.084,0,.168,0,.251a.409.409,0,0,1-.4.425.4.4,0,0,1-.371-.429c-.005-1.039,0-2.078,0-3.116a.4.4,0,0,1,.288-.423.588.588,0,0,1,.694.2c.29.42.572.846.858,1.27l.546.807c.013-.135.025-.2.025-.271,0-.511,0-1.022,0-1.533,0-.3.15-.491.383-.5s.393.186.393.485c0,1.005,0,2.011,0,3.016a.419.419,0,0,1-.3.468c-.225.065-.36-.072-.474-.241q-.715-1.062-1.432-2.125c-.05-.074-.1-.145-.157-.217Z" transform="translate(-151.996 -45.306)" fill="#ce6f29"/>
    <path id="Path_6847" data-name="Path 6847" d="M862.037,2290.992v.831c.236,0,.466,0,.7,0,.3,0,.491.147.5.38s-.188.395-.505.4c-.217,0-.434,0-.675,0v.831h.943a2.258,2.258,0,0,1,.276,0,.4.4,0,0,1,.363.385.382.382,0,0,1-.364.38c-.552.013-1.1.017-1.656,0a.37.37,0,0,1-.359-.41q-.006-1.582,0-3.163a.386.386,0,0,1,.415-.408c.51-.008,1.021-.007,1.531,0a.4.4,0,0,1,.432.394.407.407,0,0,1-.446.38C862.812,2291,862.437,2290.992,862.037,2290.992Z" transform="translate(-227.969 -45.537)" fill="#ce6f29"/>
    <path id="Path_6848" data-name="Path 6848" d="M1017.4,2294.414a1.5,1.5,0,0,1-1.358-.917.388.388,0,0,1,.17-.573c.21-.094.392-.014.52.247a.73.73,0,0,0,.71.463.428.428,0,0,0,.425-.356c.06-.206-.057-.32-.211-.4-.241-.133-.494-.246-.734-.382a1.143,1.143,0,0,1-.626-.859,1.043,1.043,0,0,1,1.253-1.2,2.091,2.091,0,0,1,.777.31.38.38,0,0,1,.1.568c-.135.169-.334.164-.561.044a1.491,1.491,0,0,0-.537-.149.309.309,0,0,0-.251.155.385.385,0,0,0,.058.314,1.018,1.018,0,0,0,.32.233c.2.114.423.2.622.325a1.039,1.039,0,0,1,.523,1.259A1.223,1.223,0,0,1,1017.4,2294.414Z" transform="translate(-374.928 -45.742)" fill="#ce6f29"/>
    <path id="Path_6849" data-name="Path 6849" d="M800.113,2419.016c-.77,0-1.539,0-2.309,0a.41.41,0,0,1-.462-.389c0-.225.185-.379.465-.387.05,0,.1,0,.151,0h3.865c.218,0,.435,0,.652,0,.278.006.464.165.463.39s-.187.385-.466.386C801.686,2419.018,800.9,2419.017,800.113,2419.016Z" transform="translate(-167.273 -167.127)" fill="#ce6f29"/>
    <path id="Path_6850" data-name="Path 6850" d="M944.165,2418.249c.778,0,1.556,0,2.334,0a.4.4,0,0,1,.439.387.412.412,0,0,1-.439.388c-.05,0-.1,0-.151,0H943.11c-.452,0-.9.006-1.355,0a.4.4,0,0,1-.413-.385.406.406,0,0,1,.414-.387c.058,0,.117,0,.176,0Z" transform="translate(-304.035 -167.137)" fill="#ce6f29"/>
    <path id="Path_6851" data-name="Path 6851" d="M800.126,2450.249c.786,0,1.573,0,2.359,0a.4.4,0,0,1,.44.386.411.411,0,0,1-.438.389c-.059,0-.117,0-.176,0h-3.865c-.217,0-.435,0-.652,0-.279-.006-.464-.163-.465-.388a.411.411,0,0,1,.463-.388C798.57,2450.247,799.348,2450.249,800.126,2450.249Z" transform="translate(-167.261 -197.529)" fill="#ce6f29"/>
    <path id="Path_6852" data-name="Path 6852" d="M944.143,2450.255q1.142,0,2.284,0c.314,0,.511.159.5.4s-.194.378-.5.378q-2.3,0-4.593,0c-.314,0-.511-.159-.5-.4s.194-.376.5-.377C942.6,2450.254,943.374,2450.255,944.143,2450.255Z" transform="translate(-304.028 -197.535)" fill="#ce6f29"/>
    <path id="Path_6853" data-name="Path 6853" d="M800.165,2482.249c.77,0,1.539,0,2.309,0,.279,0,.464.163.463.388s-.185.379-.465.388c-.05,0-.1,0-.151,0H799.01c-.418,0-.837.005-1.255,0a.4.4,0,0,1-.413-.386.406.406,0,0,1,.414-.387c.058,0,.117,0,.176,0Z" transform="translate(-167.273 -227.92)" fill="#ce6f29"/>
    <path id="Path_6854" data-name="Path 6854" d="M944.162,2482.251c.77,0,1.539,0,2.309,0,.28,0,.464.161.463.388s-.185.379-.465.387c-.05,0-.1,0-.151,0H942.93c-.368,0-.736,0-1.1,0-.3,0-.49-.157-.488-.389s.19-.386.49-.387C942.606,2482.25,943.384,2482.251,944.162,2482.251Z" transform="translate(-304.031 -227.922)" fill="#ce6f29"/>
    <path id="Path_6855" data-name="Path 6855" d="M800.128,2515.039h-2.259c-.338,0-.537-.149-.532-.4s.2-.381.521-.381H802.4c.338,0,.537.149.532.4s-.2.381-.521.382Z" transform="translate(-167.269 -258.323)" fill="#ce6f29"/>
    <path id="Path_6856" data-name="Path 6856" d="M944.113,2515.016c-.77,0-1.539,0-2.309,0a.411.411,0,0,1-.462-.389c0-.225.186-.379.466-.387.05,0,.1,0,.151,0h3.865c.218,0,.435,0,.653,0,.278.006.464.165.462.39s-.187.385-.466.386C945.685,2515.019,944.9,2515.017,944.113,2515.016Z" transform="translate(-304.035 -258.301)" fill="#ce6f29"/>
    <path id="Path_6857" data-name="Path 6857" d="M800.162,2546.251c.77,0,1.539,0,2.309,0,.281,0,.464.162.463.388s-.185.379-.465.388c-.05,0-.1,0-.151,0H798.93c-.368,0-.736,0-1.1,0-.3,0-.49-.157-.488-.389s.19-.386.49-.388C798.606,2546.249,799.384,2546.251,800.162,2546.251Z" transform="translate(-167.269 -288.705)" fill="#ce6f29"/>
    <path id="Path_6858" data-name="Path 6858" d="M944.127,2546.249h2.334c.19,0,.37.052.417.247a.472.472,0,0,1-.066.382.61.61,0,0,1-.4.143c-1.221.01-2.443.006-3.664.006-.318,0-.636,0-.954,0-.279,0-.464-.164-.464-.389s.186-.386.464-.387C942.571,2546.247,943.349,2546.249,944.127,2546.249Z" transform="translate(-304.022 -288.703)" fill="#ce6f29"/>
    <path id="Path_6859" data-name="Path 6859" d="M800.113,2579.017c-.77,0-1.539,0-2.309,0a.41.41,0,0,1-.462-.389c0-.226.185-.379.465-.387.05,0,.1,0,.151,0h3.865c.218,0,.435,0,.652,0,.278.005.464.165.463.39s-.187.385-.466.386C801.686,2579.019,800.9,2579.017,800.113,2579.017Z" transform="translate(-167.273 -319.084)" fill="#ce6f29"/>
    <path id="Path_6860" data-name="Path 6860" d="M944.165,2578.249c.778,0,1.556,0,2.334,0a.4.4,0,0,1,.439.387.412.412,0,0,1-.439.388c-.05,0-.1,0-.151,0H943.11c-.452,0-.9.006-1.355,0a.394.394,0,0,1-.413-.385.406.406,0,0,1,.414-.387c.058,0,.117,0,.176,0Z" transform="translate(-304.035 -319.094)" fill="#ce6f29"/>
    <path id="Path_6861" data-name="Path 6861" d="M800.125,2610.249h2.334c.19,0,.37.051.418.245a.474.474,0,0,1-.065.383.608.608,0,0,1-.4.144c-1.213.01-2.426.006-3.639.006-.326,0-.653,0-.979,0-.28,0-.464-.162-.465-.387a.411.411,0,0,1,.463-.388C798.569,2610.247,799.347,2610.249,800.125,2610.249Z" transform="translate(-167.261 -349.486)" fill="#ce6f29"/>
    <path id="Path_6862" data-name="Path 6862" d="M944.164,2610.249c.77,0,1.539,0,2.309,0a.411.411,0,0,1,.462.39c0,.225-.185.378-.466.386h-3.941c-.243,0-.485,0-.728,0-.277,0-.462-.165-.462-.391s.185-.384.466-.385C942.591,2610.247,943.377,2610.249,944.164,2610.249Z" transform="translate(-304.032 -349.486)" fill="#ce6f29"/>
  </g>
</svg>
