<svg xmlns="http://www.w3.org/2000/svg" width="24" height="18.438" viewBox="0 0 24 18.438">
  <g id="Group_3831" data-name="Group 3831" transform="translate(-2494.647 -3100.119)">
    <path id="Path_6871" data-name="Path 6871" d="M2496.052,3115.164v-.463q0-6.767,0-13.534a1.856,1.856,0,0,1,.016-.346.838.838,0,0,1,.9-.7q4.885,0,9.77,0h9.477c.711,0,1.026.311,1.026,1.024q0,6.807,0,13.614v.405H2518c.554,0,.643.091.644.655q0,.481,0,.961a1.666,1.666,0,0,1-1.768,1.775c-1.691.005-3.381,0-5.072,0h-15.375a1.549,1.549,0,0,1-1.713-1.21,9.9,9.9,0,0,1-.055-1.858c0-.225.2-.322.419-.322Zm.818-14.2v.3q0,6.781-.007,13.563c0,.277.079.337.344.336q3.59-.019,7.181-.014,5.873,0,11.746.006c.085,0,.171-.011.258-.018v-14.178ZM2517.818,3116h-8.466c-.006.113-.007.211-.017.307a1.059,1.059,0,0,1-1.047,1.011q-1.655.018-3.311,0a1.047,1.047,0,0,1-1.022-1.03c0-.095-.009-.189-.014-.29h-8.476c0,.278,0,.543,0,.808a.828.828,0,0,0,.938.931h20.506a.831.831,0,0,0,.9-.756C2517.841,3116.661,2517.818,3116.34,2517.818,3116Zm-9.332,0H2504.8c-.058.4.024.506.4.506h2.882C2508.468,3116.5,2508.534,3116.422,2508.486,3116Z" transform="translate(0)" fill="#ce6f29"/>
    <path id="Path_6872" data-name="Path 6872" d="M2565.458,3148.057h-7.609c-.755,0-1.054-.3-1.054-1.044q0-4.953,0-9.9c0-.748.326-1.075,1.069-1.075h15.271a.923.923,0,0,1,1.021,1.024q0,5.005,0,10.011a.875.875,0,0,1-.983.988Zm-7.828-11.18v10.348h15.679v-10.348Z" transform="translate(-58.829 -33.996)" fill="#ce6f29"/>
    <path id="Path_6873" data-name="Path 6873" d="M2636.992,3171.185a4.637,4.637,0,1,1,4.659-4.5A4.65,4.65,0,0,1,2636.992,3171.185Zm-3.785-4.635a3.814,3.814,0,1,0,3.812-3.821A3.806,3.806,0,0,0,2633.207,3166.549Z" transform="translate(-130.375 -58.493)" fill="#ce6f29"/>
    <path id="Path_6874" data-name="Path 6874" d="M2698.779,3234.805c0,.524,0,1.049,0,1.574,0,.34-.145.49-.486.5q-.733.012-1.467,0c-.335-.006-.483-.158-.484-.5q-.007-1.587,0-3.174c0-.345.147-.484.491-.487q.732-.007,1.466,0c.341,0,.478.146.48.493C2698.781,3233.738,2698.779,3234.271,2698.779,3234.805Zm-.839,1.227v-2.485h-.75v2.485Z" transform="translate(-190.919 -125.509)" fill="#ce6f29"/>
    <path id="Path_6875" data-name="Path 6875" d="M2699.131,3187.914a1.132,1.132,0,1,1,1.146-1.121A1.133,1.133,0,0,1,2699.131,3187.914Zm.363-1.067v-.125c-.114-.083-.22-.218-.345-.239-.193-.032-.314.109-.312.308a.266.266,0,0,0,.305.29C2699.27,3187.06,2699.378,3186.929,2699.494,3186.847Z" transform="translate(-192.499 -80.963)" fill="#ce6f29"/>
  </g>
</svg>
