<svg xmlns="http://www.w3.org/2000/svg" width="19.563" height="25.022" viewBox="0 0 19.563 25.022">
  <g id="Group_3832" data-name="Group 3832" transform="translate(-3381.729 -2954.964)">
    <path id="Path_6876" data-name="Path 6876" d="M3399.685,2956.587a1.635,1.635,0,0,1,1.555,1.264,2.1,2.1,0,0,1,.049.533q0,9.918,0,19.837a1.64,1.64,0,0,1-1.781,1.765h-14.25a1.665,1.665,0,0,1-1.9-1.572.168.168,0,0,0-.023-.043c-.159-.034-.321-.054-.473-.1a1.617,1.617,0,0,1-1.127-1.624q-.005-3.1,0-6.2,0-6.843,0-13.686a1.755,1.755,0,0,1,.392-1.212,1.7,1.7,0,0,1,1.366-.58q5.83.005,11.661,0h2.717a1.639,1.639,0,0,1,1.793,1.52C3399.663,2956.519,3399.676,2956.551,3399.685,2956.587Zm-15.734,6.22v.389q0,7.51,0,15.02a1.052,1.052,0,0,0,1.151,1.167c1.017,0,2.034,0,3.05,0q5.678,0,11.355,0a1.148,1.148,0,0,0,.926-.348,1.241,1.241,0,0,0,.272-.882q0-6.933,0-13.866,0-2.973,0-5.946a1.057,1.057,0,0,0-1.1-1.149c-.179,0-.358,0-.537,0h-9.022c-.09,0-.181.009-.287.015v.309c0,1.17,0,2.341,0,3.511a1.649,1.649,0,0,1-1.773,1.777c-.726,0-1.452,0-2.178,0Zm-.594,14.914v-.348q0-7.317,0-14.634a1.658,1.658,0,0,1,.507-1.215q2.2-2.208,4.4-4.406a1.74,1.74,0,0,1,1.291-.521q4.614.006,9.227,0h.272a1.025,1.025,0,0,0-1.147-1.031h-14.378a1.068,1.068,0,0,0-1.208,1.214q0,9.867,0,19.734a2.108,2.108,0,0,0,.042.458A.961.961,0,0,0,3383.358,2977.721Zm5.812-20.458a53.59,53.59,0,0,0-5.037,4.939h.284c1.17,0,2.341-.026,3.51.009a1.131,1.131,0,0,0,1.249-1.24c-.026-1.135-.007-2.272-.007-3.407Z" transform="translate(0 0)" fill="#ce6f29"/>
    <path id="Path_6877" data-name="Path 6877" d="M3454.2,3327.627c-.444,0-.888,0-1.332,0a.683.683,0,0,1-.735-.715q-.018-1.345,0-2.689a.678.678,0,0,1,.729-.721q1.332-.014,2.663,0a.73.73,0,0,1,.744.774q.005,1.293,0,2.586a.7.7,0,0,1-.763.765C3455.072,3327.631,3454.636,3327.627,3454.2,3327.627Zm-1.469-2.083c0,.418.008.837,0,1.254,0,.18.058.239.234.238q1.242-.01,2.484,0c.189,0,.226-.081.225-.247-.006-.811-.007-1.622,0-2.433,0-.2-.072-.273-.269-.272-.811.005-1.622.007-2.433,0-.2,0-.247.075-.242.257C3452.74,3324.742,3452.732,3325.144,3452.732,3325.545Z" transform="translate(-66.787 -349.635)" fill="#ce6f29"/>
    <path id="Path_6878" data-name="Path 6878" d="M3512.646,3155.8h5.073c.077,0,.174-.026.226.01.1.071.239.174.244.271s-.119.217-.215.292c-.055.044-.164.025-.249.025H3507.5c-.084,0-.193.015-.248-.029-.089-.071-.2-.188-.2-.281s.119-.206.212-.272c.058-.041.165-.016.25-.016Z" transform="translate(-118.904 -190.528)" fill="#ce6f29"/>
    <path id="Path_6879" data-name="Path 6879" d="M3512.415,3286.883h5.1c.077,0,.177-.026.225.012.1.076.22.183.23.287.009.086-.113.21-.206.274-.066.045-.181.026-.275.026h-10.3c-.2,0-.364-.07-.363-.3s.156-.3.362-.3h5.227Z" transform="translate(-118.683 -314.893)" fill="#ce6f29"/>
    <path id="Path_6880" data-name="Path 6880" d="M3512.7,3199.929h5.048a1.681,1.681,0,0,1,.23.005c.175.024.31.134.271.3-.025.112-.163.207-.267.287-.043.033-.132.009-.2.009h-10.2c-.077,0-.177.026-.226-.013-.1-.081-.232-.192-.241-.3-.007-.088.134-.207.234-.277.058-.041.166-.015.25-.015Z" transform="translate(-118.954 -232.398)" fill="#ce6f29"/>
    <path id="Path_6881" data-name="Path 6881" d="M3512.623,3113.066h-5.073c-.085,0-.2.029-.25-.013a.511.511,0,0,1-.218-.292c-.006-.085.12-.2.211-.266.05-.039.148-.018.225-.018h10.248a1.586,1.586,0,0,1,.2.008.267.267,0,0,1,.255.3.272.272,0,0,1-.273.283c-.068.006-.137,0-.205,0Z" transform="translate(-118.925 -149.431)" fill="#ce6f29"/>
    <path id="Path_6882" data-name="Path 6882" d="M3512.643,3244.122h-5.073c-.085,0-.192.027-.251-.014-.1-.069-.23-.181-.232-.277s.125-.212.222-.283c.057-.042.166-.016.25-.016h10.12c.068,0,.137,0,.2,0,.2,0,.343.081.345.29s-.132.3-.335.3h-5.252Z" transform="translate(-118.931 -273.766)" fill="#ce6f29"/>
    <path id="Path_6883" data-name="Path 6883" d="M3563.072,3385.335h-3.765c-.085,0-.191.027-.251-.013a.558.558,0,0,1-.242-.273c-.038-.159.075-.271.245-.3a1.463,1.463,0,0,1,.2-.005h7.583c.077,0,.175-.023.225.015.092.07.22.182.214.268-.007.1-.125.216-.222.288-.057.042-.166.015-.25.016Z" transform="translate(-167.998 -407.742)" fill="#ce6f29"/>
    <path id="Path_6884" data-name="Path 6884" d="M3562.258,3344.963h-2.765c-.077,0-.177.027-.225-.011-.1-.076-.215-.184-.224-.288-.008-.086.115-.2.206-.271.058-.042.165-.023.25-.023h5.607c.257.007.4.115.391.3-.018.241-.183.295-.4.294C3564.152,3344.961,3563.2,3344.963,3562.258,3344.963Z" transform="translate(-168.223 -369.436)" fill="#ce6f29"/>
    <path id="Path_6885" data-name="Path 6885" d="M3618.224,3027.509a3.564,3.564,0,0,1-.19-.785.761.761,0,0,1,.882-.716.652.652,0,0,1,.633.765,1.177,1.177,0,0,1-.279.5,2.155,2.155,0,0,1-.4.3l.8.923a3.882,3.882,0,0,0,.233-.686c.039-.281.165-.344.441-.26a2.257,2.257,0,0,1-.449,1.17l.483.52a.552.552,0,0,1-.744-.247,1.318,1.318,0,0,1-1.3.3,1.105,1.105,0,0,1-.535-.4C3617.484,3028.44,3617.666,3027.94,3618.224,3027.509Zm1.176,1.224-.9-1.007c-.423.313-.51.714-.262,1.027A.819.819,0,0,0,3619.4,3028.734Zm-.8-1.4.1.022c.136-.135.321-.25.394-.413a.636.636,0,0,0-.036-.491c-.043-.083-.258-.132-.378-.108a.343.343,0,0,0-.25.42A3.988,3.988,0,0,0,3618.6,3027.337Z" transform="translate(-223.82 -67.398)" fill="#ce6f29"/>
    <path id="Path_6886" data-name="Path 6886" d="M3678.369,3028.8l.1.254a1.753,1.753,0,0,1-1.991-.248,1.872,1.872,0,0,1-.041-2.316,1.705,1.705,0,0,1,2.036-.4l-.1.276a1.425,1.425,0,0,0-1.7.418,1.547,1.547,0,0,0,.009,1.627C3677.125,3029.019,3677.739,3028.935,3678.369,3028.8Z" transform="translate(-279.239 -67.309)" fill="#ce6f29"/>
    <path id="Path_6887" data-name="Path 6887" d="M3571.683,3027.232v.337h-.975v2.877h-.436v-2.868h-.946v-.345Z" transform="translate(-177.978 -68.563)" fill="#ce6f29"/>
    <path id="Path_6888" data-name="Path 6888" d="M3453.177,3200.563c-.154,0-.308.011-.46,0-.176-.017-.309-.135-.272-.3a.419.419,0,0,1,.267-.278,5.926,5.926,0,0,1,.945-.01.277.277,0,0,1,.281.3.288.288,0,0,1-.3.289c-.153.01-.307,0-.461,0Z" transform="translate(-67.084 -232.43)" fill="#ce6f29"/>
    <path id="Path_6889" data-name="Path 6889" d="M3453.24,3287.012c.154,0,.308-.008.461,0,.179.012.311.129.279.3a.415.415,0,0,1-.26.283,4.273,4.273,0,0,1-.969,0,.412.412,0,0,1-.254-.288c-.029-.167.1-.28.284-.29C3452.932,3287,3453.086,3287.011,3453.24,3287.012Z" transform="translate(-67.134 -315.021)" fill="#ce6f29"/>
    <path id="Path_6890" data-name="Path 6890" d="M3453.432,3155.764c.145,0,.29,0,.435,0,.183,0,.315.117.292.282a.407.407,0,0,1-.248.291,4.563,4.563,0,0,1-.993,0,.38.38,0,0,1-.237-.292c.006-.1.156-.233.269-.269A1.669,1.669,0,0,1,3453.432,3155.764Z" transform="translate(-67.314 -190.493)" fill="#ce6f29"/>
    <path id="Path_6891" data-name="Path 6891" d="M3453.39,3244.11a1.422,1.422,0,0,1-.456-.011c-.11-.04-.254-.183-.254-.28a.381.381,0,0,1,.253-.276,4.41,4.41,0,0,1,.968,0,.38.38,0,0,1,.251.278c0,.1-.146.243-.256.277A1.8,1.8,0,0,1,3453.39,3244.11Z" transform="translate(-67.314 -273.758)" fill="#ce6f29"/>
    <path id="Path_6892" data-name="Path 6892" d="M3453.149,3113.058c-.153,0-.307,0-.46,0a.277.277,0,0,1-.3-.283.269.269,0,0,1,.281-.3,6.69,6.69,0,0,1,.944.011.411.411,0,0,1,.267.272c.035.164-.088.287-.272.3-.153.009-.307,0-.46,0Z" transform="translate(-67.037 -149.425)" fill="#ce6f29"/>
    <path id="Path_6893" data-name="Path 6893" d="M3470.088,3347.149c.353-.361.668-.686.987-1.006.2-.2.373-.227.5-.074.161.186.075.342-.075.49-.376.372-.748.75-1.124,1.123-.212.209-.354.208-.566,0-.135-.131-.27-.262-.4-.4a.278.278,0,0,1-.013-.413.284.284,0,0,1,.433,0A3.7,3.7,0,0,1,3470.088,3347.149Z" transform="translate(-83.098 -370.96)" fill="#ce6f29"/>
  </g>
</svg>
